# xmcd
#
# Track frame offsets: 
#        183
#        11863
#        22838
#        33713
#        50995
#        63673
#        76873
#        92703
#        102825
#        116118
#        130008
#        143183
#        157730
#        172008
#        184548
#        196165
#        209290
#        219840
#        230563
#        241443
#
# Disc length: 3485 seconds
#
# Revision: 4
# Processed by: cddbd v1.5.2PL0 Copyright (c) Steve Scherf et al.
# Submitted via: ExactAudioCopy v0.95b4
#
DISCID=130d9b14
DTITLE=Crystal Gayle - The Best of Crystal Gayle
DYEAR=1995
DGENRE=Country
TTITLE0=Don't It Make My Brown Eyes Blue
TTITLE1=Somebody Loves You
TTITLE2=Ready For The Times To Get Better
TTITLE3=You Never Miss A Real Good Thing
TTITLE4=When I Dream
TTITLE5=I'll Do It All Over Again
TTITLE6=I'll Get Over You
TTITLE7=Wrong Road Again
TTITLE8=Why Have You Left The One You Left You
TTITLE9=River Road
TTITLE10=Talking in Your Sleep
TTITLE11=Cry Me A River
TTITLE12=Green Door
TTITLE13=Everybody is Reaching Out For Somebody
TTITLE14=Never Ending Song Of Love
TTITLE15=The Trouble With Me (Is You)
TTITLE16=High Time
TTITLE17=Restless
TTITLE18=You
TTITLE19=Faithless Love
EXTD=YEAR: 1995 ID3G:   2
EXTT0=
EXTT1=
EXTT2=
EXTT3=
EXTT4=
EXTT5=
EXTT6=
EXTT7=
EXTT8=
EXTT9=
EXTT10=
EXTT11=
EXTT12=
EXTT13=
EXTT14=
EXTT15=
EXTT16=
EXTT17=
EXTT18=
EXTT19=
PLAYORDER=
